<svg version="1.1" id="Layer_1" xmlns="http://www.w3.org/2000/svg" xmlns:xlink="http://www.w3.org/1999/xlink" x="0px" y="0px"
	 width="100%" viewBox="0 0 771 659" enable-background="new 0 0 771 659" xml:space="preserve">
<path fill="#FFFFFF" opacity="1.000000" stroke="none" 
	d="
M476.000000,660.000000 
	C317.333344,660.000000 159.166672,660.000000 1.000000,660.000000 
	C1.000000,440.333344 1.000000,220.666672 1.000000,1.000000 
	C258.000000,1.000000 515.000000,1.000000 772.000000,1.000000 
	C772.000000,220.666672 772.000000,440.333344 772.000000,660.000000 
	C673.500000,660.000000 575.000000,660.000000 476.000000,660.000000 
M221.326019,585.744263 
	C231.185791,590.588867 241.045563,595.433533 251.414368,600.771545 
	C267.401093,607.593994 283.746277,613.277283 301.497833,616.775330 
	C311.330688,618.460999 321.163544,620.146667 331.908112,621.965332 
	C342.939819,622.318665 353.971558,622.671936 365.931091,623.159973 
	C375.337494,622.755859 384.779266,622.722656 394.138947,621.829041 
	C401.478851,621.128296 408.717102,619.362976 416.807068,618.109192 
	C427.537872,615.049377 438.268677,611.989563 449.786133,609.000671 
	C452.393616,608.067200 455.079010,607.306396 457.595551,606.171387 
	C470.827667,600.203003 484.017090,594.139954 497.828461,587.805298 
	C504.288422,583.919189 510.956909,580.338196 517.170349,576.091370 
	C538.276672,561.665527 557.327942,544.912781 573.905334,525.371399 
	C587.242371,509.649658 598.724487,492.734436 608.393982,474.516663 
	C617.005615,458.291779 624.081604,441.458710 629.168518,423.841492 
	C632.150635,413.513428 634.869873,403.057526 636.824646,392.495728 
	C640.655212,371.798920 640.915833,350.801666 639.862427,329.871307 
	C639.208252,316.873230 637.079590,303.949310 635.543457,290.268738 
	C633.661987,282.786865 632.072937,275.215637 629.821960,267.846680 
	C627.253845,259.439240 624.096008,251.211929 621.118530,242.137268 
	C616.043213,231.440674 610.967896,220.744080 605.623535,209.415695 
	C598.783813,198.700211 592.070129,187.901001 585.036560,177.314255 
	C582.546997,173.567001 579.277588,170.337814 576.081116,166.234894 
	C568.102112,157.721161 560.123108,149.207413 551.795959,140.115784 
	C550.531799,139.117783 549.259338,138.130157 548.004883,137.120087 
	C539.333008,130.137741 530.664917,123.150719 521.384583,115.842598 
	C517.771912,113.311554 514.311279,110.519478 510.513092,108.306915 
	C503.781982,104.385872 496.845856,100.816826 489.432007,96.680695 
	C486.870270,95.287491 484.400665,93.677368 481.729034,92.542969 
	C474.565491,89.501228 467.315399,86.663177 459.647186,83.185905 
	C450.902832,80.200249 442.256165,76.870705 433.379913,74.349350 
	C427.421265,72.656738 421.137421,72.109070 414.316162,70.697113 
	C402.543915,69.136650 390.771637,67.576187 378.184296,65.808388 
	C364.437103,66.112808 350.689941,66.417229 336.052155,66.690697 
	C330.954407,67.141853 325.798950,67.257835 320.772522,68.123199 
	C313.352112,69.400726 306.023468,71.211380 297.874237,72.806015 
	C295.958923,73.204895 293.990356,73.437744 292.137848,74.032349 
	C285.303314,76.226051 278.507202,78.539436 270.930084,80.840263 
	C269.021301,81.312546 267.013428,81.548248 265.221130,82.298729 
	C258.056122,85.298897 250.958115,88.459023 243.124771,91.777771 
	C240.899521,92.802460 238.554688,93.628464 236.468475,94.884171 
	C223.164276,102.892105 209.470673,110.354820 196.759781,119.221970 
	C179.407135,131.327225 163.982193,145.879303 150.234131,161.943329 
	C137.496704,176.826462 125.866936,192.662735 117.050926,210.268921 
	C110.794907,222.762619 104.287086,235.252335 99.509323,248.334610 
	C92.883835,266.476227 88.198997,285.177887 85.479126,304.489655 
	C82.223625,327.604584 81.965828,350.662506 84.235077,373.682648 
	C85.637428,387.908600 89.426430,401.899323 92.027473,416.775818 
	C95.300461,426.199097 98.573456,435.622406 101.923706,445.822083 
	C105.858040,454.589233 109.792374,463.356354 113.894234,472.845886 
	C118.195427,480.244904 122.244041,487.806641 126.874336,494.993652 
	C130.887695,501.223175 135.560318,507.028015 140.145767,513.678833 
	C147.774338,522.448608 155.402924,531.218384 163.211212,540.635925 
	C164.285980,541.655884 165.317612,542.726318 166.442429,543.687744 
	C174.893661,550.911377 183.363251,558.113525 191.989441,565.996765 
	C201.635666,572.392822 211.281906,578.788940 221.326019,585.744263 
z"/>
<path fill="#B2C157" opacity="1.000000" stroke="none" 
	d="
M416.000519,618.070679 
	C408.717102,619.362976 401.478851,621.128296 394.138947,621.829041 
	C384.779266,622.722656 375.337494,622.755859 365.467102,622.697021 
	C365.344299,620.803101 365.457642,619.267212 366.061432,617.957397 
	C372.784698,603.373474 379.521973,588.795349 386.377045,574.273071 
	C396.474518,552.881836 406.761749,531.579590 416.753906,510.139587 
	C418.961975,505.401672 420.274078,500.246155 422.458618,495.198120 
	C425.916016,495.124573 428.917725,495.243103 431.910339,495.127563 
	C442.074738,494.735016 450.918549,491.563019 455.135986,481.499725 
	C458.234924,474.105377 460.467651,466.329376 462.800354,458.636719 
	C466.872589,445.207703 470.761322,431.722565 474.655670,418.240326 
	C477.173523,409.523621 479.385071,400.714142 482.092072,392.058228 
	C483.342957,388.058472 484.457855,383.127777 487.370636,380.716644 
	C493.915405,375.299011 501.606049,371.283081 508.714325,366.523376 
	C514.711426,362.507751 520.108276,358.073456 522.173096,350.493500 
	C524.139099,343.276611 520.519897,337.420532 513.000549,337.054352 
	C507.680664,336.795319 502.350677,336.743591 497.019592,336.168457 
	C497.651520,333.544189 498.014832,331.222504 498.970886,329.178009 
	C505.411682,315.404266 512.104004,301.747375 518.475220,287.942017 
	C528.720947,265.741211 538.725342,243.429123 548.939392,221.213608 
	C556.052124,205.743393 563.259277,190.314804 570.632812,174.967865 
	C572.044495,172.029648 574.428711,169.558701 576.364197,166.872131 
	C579.277588,170.337814 582.546997,173.567001 585.036560,177.314255 
	C592.070129,187.901001 598.783813,198.700211 605.499023,209.937408 
	C601.119629,218.913696 596.654724,227.270126 592.646851,235.840302 
	C577.528564,268.168060 562.544250,300.558502 547.539490,332.939301 
	C539.583801,350.108032 531.708740,367.314087 523.762146,384.487061 
	C513.250488,407.203308 502.772675,429.935638 492.157013,452.603333 
	C476.172119,486.735992 460.065582,520.811646 444.040924,554.925720 
	C436.912476,570.101135 429.753265,585.263855 422.823181,600.529907 
	C420.233856,606.233826 418.256744,612.215576 416.000519,618.070679 
z"/>
<path fill="#49AA78" opacity="1.000000" stroke="none" 
	d="
M92.143990,415.995636 
	C89.426430,401.899323 85.637428,387.908600 84.235077,373.682648 
	C81.965828,350.662506 82.223625,327.604584 85.479126,304.489655 
	C88.198997,285.177887 92.883835,266.476227 99.509323,248.334610 
	C104.287086,235.252335 110.794907,222.762619 117.050926,210.268921 
	C125.866936,192.662735 137.496704,176.826462 150.234131,161.943329 
	C163.982193,145.879303 179.407135,131.327225 196.759781,119.221970 
	C209.470673,110.354820 223.164276,102.892105 236.468475,94.884171 
	C238.554688,93.628464 240.899521,92.802460 243.626068,92.026581 
	C244.407242,94.206161 245.519424,96.517433 244.837708,98.008553 
	C238.362869,112.170799 231.488754,126.149719 224.916275,140.268326 
	C217.221619,156.797470 209.706482,173.410248 202.126419,189.992676 
	C195.583282,204.306656 189.167282,218.679932 182.498962,232.935257 
	C173.244263,252.719681 163.703995,272.370697 154.475586,292.167206 
	C145.358597,311.724701 136.520615,331.412018 127.476357,351.003662 
	C122.200661,362.431915 116.755219,373.781799 111.395943,385.171539 
	C107.010300,394.492035 102.690239,403.843933 98.227097,413.127106 
	C97.057076,415.560669 95.503822,417.877838 92.143990,415.995636 
z"/>
<path fill="#5BAE72" opacity="1.000000" stroke="none" 
	d="
M298.655762,72.794998 
	C306.023468,71.211380 313.352112,69.400726 320.772522,68.123199 
	C325.798950,67.257835 330.954407,67.141853 336.485657,67.095451 
	C333.767731,74.951141 330.865021,82.519371 327.416809,89.830322 
	C318.240417,109.286140 308.710175,128.575134 299.541626,148.034576 
	C288.533539,171.398376 277.703979,194.847015 266.967255,218.336670 
	C266.076172,220.286163 266.482147,222.828506 266.091095,225.387146 
	C254.813202,233.441238 245.353210,242.987656 237.630157,253.949081 
	C226.316696,270.006409 218.161072,287.791901 211.957489,306.413788 
	C209.109589,314.962646 206.290009,323.578583 204.367874,332.363281 
	C202.075745,342.838959 200.113632,353.473114 199.203613,364.140564 
	C198.303497,374.692047 198.892578,385.370544 198.477051,396.047363 
	C197.410019,396.927155 196.448090,397.641510 196.016525,398.595764 
	C191.325409,408.968750 186.818207,419.425659 182.061859,429.768158 
	C175.800949,443.382263 169.355026,456.911255 163.001541,470.482819 
	C156.973679,483.358795 151.058685,496.289490 144.829056,509.066864 
	C143.997009,510.773407 141.609009,511.721344 139.941559,513.020569 
	C135.560318,507.028015 130.887695,501.223175 126.874336,494.993652 
	C122.244041,487.806641 118.195427,480.244904 114.147507,472.343140 
	C116.498535,469.401672 119.219513,467.266693 120.582504,464.469910 
	C125.580795,454.213745 130.022644,443.688385 134.866974,433.354858 
	C144.018616,413.833344 153.380127,394.410187 162.513718,374.880341 
	C172.919022,352.631287 183.178162,330.313843 193.486786,308.019623 
	C203.489807,286.386292 213.427216,264.722534 223.482452,243.113541 
	C232.310242,224.142395 241.265121,205.230408 250.156921,186.289017 
	C258.114990,169.336578 266.080353,152.387512 274.011902,135.422668 
	C282.782867,116.662361 291.516571,97.884644 300.273224,79.117638 
	C301.470276,76.552238 301.553406,74.299446 298.655762,72.794998 
z"/>
<path fill="#BFC453" opacity="1.000000" stroke="none" 
	d="
M621.194458,242.906342 
	C624.096008,251.211929 627.253845,259.439240 629.821960,267.846680 
	C632.072937,275.215637 633.661987,282.786865 635.226318,290.650146 
	C632.521240,295.205292 629.827209,299.235901 627.797119,303.576996 
	C617.917664,324.703430 608.220398,345.915039 598.449463,367.092224 
	C592.415405,380.170380 586.316956,393.219086 580.335083,406.320984 
	C574.096802,419.984344 568.126831,433.772400 561.739380,447.364838 
	C555.190552,461.300720 548.130066,474.995880 541.563660,488.923767 
	C533.905518,505.167236 526.615479,521.583923 519.025024,537.859802 
	C512.371277,552.127136 505.448761,566.269348 498.836670,580.555542 
	C497.781860,582.834656 497.734467,585.580017 497.221344,588.109802 
	C484.017090,594.139954 470.827667,600.203003 457.595551,606.171387 
	C455.079010,607.306396 452.393616,608.067200 449.433594,608.608032 
	C457.685974,589.560547 466.216949,570.871216 474.918854,552.261719 
	C482.072876,536.962463 489.558777,521.818054 496.665833,506.497437 
	C506.771942,484.711761 516.560608,462.778656 526.686523,441.002319 
	C533.597839,426.139099 540.971436,411.491302 547.926331,396.647858 
	C557.634521,375.928345 567.136841,355.112488 576.741882,334.344574 
	C588.792114,308.289703 600.771484,282.201294 612.994507,256.227631 
	C615.200867,251.539230 618.434937,247.334442 621.194458,242.906342 
z"/>
<path fill="#C7C650" opacity="1.000000" stroke="none" 
	d="
M497.524902,587.957520 
	C497.734467,585.580017 497.781860,582.834656 498.836670,580.555542 
	C505.448761,566.269348 512.371277,552.127136 519.025024,537.859802 
	C526.615479,521.583923 533.905518,505.167236 541.563660,488.923767 
	C548.130066,474.995880 555.190552,461.300720 561.739380,447.364838 
	C568.126831,433.772400 574.096802,419.984344 580.335083,406.320984 
	C586.316956,393.219086 592.415405,380.170380 598.449463,367.092224 
	C608.220398,345.915039 617.917664,324.703430 627.797119,303.576996 
	C629.827209,299.235901 632.521240,295.205292 635.260986,291.011841 
	C637.079590,303.949310 639.208252,316.873230 639.862427,329.871307 
	C640.915833,350.801666 640.655212,371.798920 636.824646,392.495728 
	C634.869873,403.057526 632.150635,413.513428 629.168518,423.841492 
	C624.081604,441.458710 617.005615,458.291779 608.393982,474.516663 
	C598.724487,492.734436 587.242371,509.649658 573.905334,525.371399 
	C557.327942,544.912781 538.276672,561.665527 517.170349,576.091370 
	C510.956909,580.338196 504.288422,583.919189 497.524902,587.957520 
z"/>
<path fill="#B9C354" opacity="1.000000" stroke="none" 
	d="
M621.156494,242.521820 
	C618.434937,247.334442 615.200867,251.539230 612.994507,256.227631 
	C600.771484,282.201294 588.792114,308.289703 576.741882,334.344574 
	C567.136841,355.112488 557.634521,375.928345 547.926331,396.647858 
	C540.971436,411.491302 533.597839,426.139099 526.686523,441.002319 
	C516.560608,462.778656 506.771942,484.711761 496.665833,506.497437 
	C489.558777,521.818054 482.072876,536.962463 474.918854,552.261719 
	C466.216949,570.871216 457.685974,589.560547 449.040283,608.572571 
	C438.268677,611.989563 427.537872,615.049377 416.403809,618.089966 
	C418.256744,612.215576 420.233856,606.233826 422.823181,600.529907 
	C429.753265,585.263855 436.912476,570.101135 444.040924,554.925720 
	C460.065582,520.811646 476.172119,486.735992 492.157013,452.603333 
	C502.772675,429.935638 513.250488,407.203308 523.762146,384.487061 
	C531.708740,367.314087 539.583801,350.108032 547.539490,332.939301 
	C562.544250,300.558502 577.528564,268.168060 592.646851,235.840302 
	C596.654724,227.270126 601.119629,218.913696 605.633545,210.253296 
	C610.967896,220.744080 616.043213,231.440674 621.156494,242.521820 
z"/>
<path fill="#56AD73" opacity="1.000000" stroke="none" 
	d="
M298.265015,72.800507 
	C301.553406,74.299446 301.470276,76.552238 300.273224,79.117638 
	C291.516571,97.884644 282.782867,116.662361 274.011902,135.422668 
	C266.080353,152.387512 258.114990,169.336578 250.156921,186.289017 
	C241.265121,205.230408 232.310242,224.142395 223.482452,243.113541 
	C213.427216,264.722534 203.489807,286.386292 193.486786,308.019623 
	C183.178162,330.313843 172.919022,352.631287 162.513718,374.880341 
	C153.380127,394.410187 144.018616,413.833344 134.866974,433.354858 
	C130.022644,443.688385 125.580795,454.213745 120.582504,464.469910 
	C119.219513,467.266693 116.498535,469.401672 114.063751,471.981934 
	C109.792374,463.356354 105.858040,454.589233 102.271057,445.416931 
	C104.070923,443.870453 106.154358,443.034821 106.878395,441.540558 
	C114.109489,426.616913 121.132401,411.592194 128.181946,396.580902 
	C133.796173,384.626007 139.430450,372.679779 144.936005,360.674774 
	C149.903564,349.842773 154.558167,338.865631 159.619553,328.078583 
	C167.790604,310.664185 176.277603,293.398041 184.453110,275.985687 
	C192.215683,259.452850 199.705597,242.792252 207.396896,226.225662 
	C214.730560,210.429413 222.220978,194.705902 229.547729,178.906494 
	C237.020264,162.792786 244.310165,146.594284 251.805725,130.491409 
	C258.182678,116.791695 264.885132,103.241180 271.079315,89.460930 
	C272.192505,86.984436 271.536041,83.712494 271.696594,80.807816 
	C278.507202,78.539436 285.303314,76.226051 292.137848,74.032349 
	C293.990356,73.437744 295.958923,73.204895 298.265015,72.800507 
z"/>
<path fill="#51AC75" opacity="1.000000" stroke="none" 
	d="
M271.313354,80.824036 
	C271.536041,83.712494 272.192505,86.984436 271.079315,89.460930 
	C264.885132,103.241180 258.182678,116.791695 251.805725,130.491409 
	C244.310165,146.594284 237.020264,162.792786 229.547729,178.906494 
	C222.220978,194.705902 214.730560,210.429413 207.396896,226.225662 
	C199.705597,242.792252 192.215683,259.452850 184.453110,275.985687 
	C176.277603,293.398041 167.790604,310.664185 159.619553,328.078583 
	C154.558167,338.865631 149.903564,349.842773 144.936005,360.674774 
	C139.430450,372.679779 133.796173,384.626007 128.181946,396.580902 
	C121.132401,411.592194 114.109489,426.616913 106.878395,441.540558 
	C106.154358,443.034821 104.070923,443.870453 102.232422,445.028748 
	C98.573456,435.622406 95.300461,426.199097 92.085732,416.385742 
	C95.503822,417.877838 97.057076,415.560669 98.227097,413.127106 
	C102.690239,403.843933 107.010300,394.492035 111.395943,385.171539 
	C116.755219,373.781799 122.200661,362.431915 127.476357,351.003662 
	C136.520615,331.412018 145.358597,311.724701 154.475586,292.167206 
	C163.703995,272.370697 173.244263,252.719681 182.498962,232.935257 
	C189.167282,218.679932 195.583282,204.306656 202.126419,189.992676 
	C209.706482,173.410248 217.221619,156.797470 224.916275,140.268326 
	C231.488754,126.149719 238.362869,112.170799 244.837708,98.008553 
	C245.519424,96.517433 244.407242,94.206161 243.981323,91.917686 
	C250.958115,88.459023 258.056122,85.298897 265.221130,82.298729 
	C267.013428,81.548248 269.021301,81.312546 271.313354,80.824036 
z"/>
<path fill="#91BA61" opacity="1.000000" stroke="none" 
	d="
M300.913757,616.347168 
	C283.746277,613.277283 267.401093,607.593994 251.191162,600.124634 
	C251.080795,598.826782 251.055832,598.111267 251.326172,597.533997 
	C264.998932,568.340210 278.763184,539.188904 292.320892,509.941895 
	C294.367767,505.526367 295.464722,500.670471 297.466461,495.957947 
	C303.393402,495.926544 308.855743,495.905396 314.316254,495.994751 
	C326.253418,496.190063 337.226349,492.774323 347.591736,487.135925 
	C352.703552,484.355194 357.728271,481.414307 362.843384,478.949982 
	C360.571350,484.957092 358.394592,490.626160 355.899536,496.151459 
	C346.221497,517.583496 336.539307,539.014648 326.663055,560.355713 
	C321.021912,572.545349 314.888580,584.506714 309.201355,596.675781 
	C306.190979,603.117065 303.660767,609.782776 300.913757,616.347168 
z"/>
<path fill="#65B06F" opacity="1.000000" stroke="none" 
	d="
M266.285492,225.095398 
	C266.482147,222.828506 266.076172,220.286163 266.967255,218.336670 
	C277.703979,194.847015 288.533539,171.398376 299.541626,148.034576 
	C308.710175,128.575134 318.240417,109.286140 327.416809,89.830322 
	C330.865021,82.519371 333.767731,74.951141 336.930939,67.110924 
	C350.689941,66.417229 364.437103,66.112808 378.592163,66.330734 
	C378.416016,69.393646 378.195251,72.091217 377.178040,74.444511 
	C374.419586,80.826180 371.277557,87.040779 368.370087,93.359550 
	C361.249207,108.835167 354.330963,124.406090 347.042267,139.801865 
	C337.843079,159.233154 328.356964,178.528610 318.660278,198.042969 
	C312.826172,200.307800 307.023529,201.852234 301.887299,204.629257 
	C289.850311,211.137390 278.132507,218.235901 266.285492,225.095398 
z"/>
<path fill="#7BB568" opacity="1.000000" stroke="none" 
	d="
M414.999054,71.049133 
	C421.137421,72.109070 427.421265,72.656738 433.379913,74.349350 
	C442.256165,76.870705 450.902832,80.200249 459.815918,83.849915 
	C454.065857,97.248428 448.179749,109.998276 442.221405,122.714256 
	C430.167053,148.440048 418.073486,174.147446 405.614197,199.904251 
	C395.485016,197.583939 385.737762,195.221832 375.901062,192.491180 
	C373.474060,192.220673 371.136444,192.318726 368.453979,192.401306 
	C367.422821,192.322830 366.736572,192.259811 365.840698,191.896561 
	C364.397888,191.037659 363.164673,190.478973 361.978851,189.941788 
	C365.437897,182.720840 368.676392,176.010651 371.871368,169.279816 
	C378.048462,156.266693 384.272644,143.275208 390.343353,130.212494 
	C396.332153,117.326042 402.384033,104.460106 407.955200,91.392021 
	C410.760681,84.811295 416.098999,79.008049 414.999054,71.049133 
z"/>
<path fill="#A6BF5B" opacity="1.000000" stroke="none" 
	d="
M576.222656,166.553528 
	C574.428711,169.558701 572.044495,172.029648 570.632812,174.967865 
	C563.259277,190.314804 556.052124,205.743393 548.939392,221.213608 
	C538.725342,243.429123 528.720947,265.741211 518.475220,287.942017 
	C512.104004,301.747375 505.411682,315.404266 498.970886,329.178009 
	C498.014832,331.222504 497.651520,333.544189 496.610016,336.204926 
	C481.471741,336.535339 466.737427,336.398438 452.001282,335.920929 
	C454.061340,330.583069 456.209320,325.619202 458.162964,320.579987 
	C460.523743,314.490479 462.719940,308.337128 465.344788,302.297882 
	C467.735077,303.051697 469.805634,303.622955 471.794495,304.402679 
	C481.810852,308.329224 496.197388,302.835114 499.747925,296.032654 
	C503.003754,289.794739 505.627838,283.114746 507.645386,276.365021 
	C512.648193,259.627930 516.791382,242.629059 522.000671,225.960632 
	C524.462646,218.082840 524.354126,211.031906 520.571533,203.938019 
	C522.581787,201.516708 524.639526,199.326477 525.867188,196.741959 
	C534.720520,178.103973 543.405701,159.386169 552.144165,140.693665 
	C560.123108,149.207413 568.102112,157.721161 576.222656,166.553528 
z"/>
<path fill="#9DBD5D" opacity="1.000000" stroke="none" 
	d="
M301.205811,616.561279 
	C303.660767,609.782776 306.190979,603.117065 309.201355,596.675781 
	C314.888580,584.506714 321.021912,572.545349 326.663055,560.355713 
	C336.539307,539.014648 346.221497,517.583496 355.899536,496.151459 
	C358.394592,490.626160 360.571350,484.957092 362.969208,478.644836 
	C370.175446,471.395599 377.306854,464.855530 384.608307,458.159515 
	C388.067566,466.701660 391.551544,475.304810 394.884308,484.227966 
	C394.090149,485.511627 393.313904,486.412292 392.824127,487.448334 
	C384.828583,504.362244 376.821716,521.271057 368.913635,538.225952 
	C358.275421,561.034180 347.677887,583.861633 337.161499,606.726257 
	C334.891083,611.662537 333.040405,616.791870 330.996399,621.832275 
	C321.163544,620.146667 311.330688,618.460999 301.205811,616.561279 
z"/>
<path fill="#70B36B" opacity="1.000000" stroke="none" 
	d="
M414.657593,70.873123 
	C416.098999,79.008049 410.760681,84.811295 407.955200,91.392021 
	C402.384033,104.460106 396.332153,117.326042 390.343353,130.212494 
	C384.272644,143.275208 378.048462,156.266693 371.871368,169.279816 
	C368.676392,176.010651 365.437897,182.720840 361.978851,189.941788 
	C363.164673,190.478973 364.397888,191.037659 365.470520,192.066925 
	C349.688965,192.737717 334.240662,194.433975 318.994629,197.882660 
	C328.356964,178.528610 337.843079,159.233154 347.042267,139.801865 
	C354.330963,124.406090 361.249207,108.835167 368.370087,93.359550 
	C371.277557,87.040779 374.419586,80.826180 377.178040,74.444511 
	C378.195251,72.091217 378.416016,69.393646 378.999695,66.434410 
	C390.771637,67.576187 402.543915,69.136650 414.657593,70.873123 
z"/>
<path fill="#A6BF5B" opacity="1.000000" stroke="none" 
	d="
M331.452271,621.898804 
	C333.040405,616.791870 334.891083,611.662537 337.161499,606.726257 
	C347.677887,583.861633 358.275421,561.034180 368.913635,538.225952 
	C376.821716,521.271057 384.828583,504.362244 392.824127,487.448334 
	C393.313904,486.412292 394.090149,485.511627 395.166534,484.423706 
	C395.972076,484.821381 396.258057,485.442932 396.729218,485.850250 
	C403.980438,492.118896 412.900604,493.944092 421.998718,495.282928 
	C420.274078,500.246155 418.961975,505.401672 416.753906,510.139587 
	C406.761749,531.579590 396.474518,552.881836 386.377045,574.273071 
	C379.521973,588.795349 372.784698,603.373474 366.061432,617.957397 
	C365.457642,619.267212 365.344299,620.803101 365.003204,622.629639 
	C353.971558,622.671936 342.939819,622.318665 331.452271,621.898804 
z"/>
<path fill="#91BA61" opacity="1.000000" stroke="none" 
	d="
M489.995514,97.100494 
	C496.845856,100.816826 503.781982,104.385872 510.513092,108.306915 
	C514.311279,110.519478 517.771912,113.311554 521.683838,116.377411 
	C521.462585,118.645798 521.150085,120.476898 520.389832,122.098030 
	C511.793243,140.429489 503.060608,158.697418 494.517151,177.053436 
	C491.465973,183.609024 488.828003,190.356934 485.719421,197.218796 
	C472.272400,203.180405 461.250916,211.769150 451.779602,222.523346 
	C450.056305,224.480087 447.442200,225.744904 444.788269,223.538864 
	C441.822571,221.073700 438.923279,218.528595 436.001801,215.638260 
	C439.677673,207.314651 443.347260,199.371231 447.015991,191.427429 
	C457.982758,167.681213 468.987366,143.952347 479.893677,120.178391 
	C483.394592,112.547066 486.635590,104.796509 489.995514,97.100494 
z"/>
<path fill="#86B765" opacity="1.000000" stroke="none" 
	d="
M489.713745,96.890594 
	C486.635590,104.796509 483.394592,112.547066 479.893677,120.178391 
	C468.987366,143.952347 457.982758,167.681213 447.015991,191.427429 
	C443.347260,199.371231 439.677673,207.314651 435.644531,215.624237 
	C425.519043,210.614288 415.757568,205.238358 405.996094,199.862427 
	C418.073486,174.147446 430.167053,148.440048 442.221405,122.714256 
	C448.179749,109.998276 454.065857,97.248428 460.042175,84.129066 
	C467.315399,86.663177 474.565491,89.501228 481.729034,92.542969 
	C484.400665,93.677368 486.870270,95.287491 489.713745,96.890594 
z"/>
<path fill="#65B06F" opacity="1.000000" stroke="none" 
	d="
M140.043655,513.349731 
	C141.609009,511.721344 143.997009,510.773407 144.829056,509.066864 
	C151.058685,496.289490 156.973679,483.358795 163.001541,470.482819 
	C169.355026,456.911255 175.800949,443.382263 182.061859,429.768158 
	C186.818207,419.425659 191.325409,408.968750 196.016525,398.595764 
	C196.448090,397.641510 197.410019,396.927155 198.547394,396.498352 
	C199.874878,410.789337 201.887085,424.450958 207.559265,437.329224 
	C208.988342,440.573853 210.508499,443.778351 211.634735,447.039734 
	C210.168472,448.428070 208.709732,449.617981 207.996643,451.154053 
	C203.761826,460.276337 199.817154,469.533783 195.554565,478.642639 
	C187.078720,496.754974 178.582306,514.860413 169.773148,532.811096 
	C168.390823,535.627930 165.321030,537.616577 163.031494,539.988159 
	C155.402924,531.218384 147.774338,522.448608 140.043655,513.349731 
z"/>
<path fill="#70B36B" opacity="1.000000" stroke="none" 
	d="
M163.121353,540.312012 
	C165.321030,537.616577 168.390823,535.627930 169.773148,532.811096 
	C178.582306,514.860413 187.078720,496.754974 195.554565,478.642639 
	C199.817154,469.533783 203.761826,460.276337 207.996643,451.154053 
	C208.709732,449.617981 210.168472,448.428070 211.907364,447.241943 
	C216.404175,452.722229 220.020935,458.252380 224.231293,463.286011 
	C227.448059,467.131744 231.416092,470.349060 235.030640,474.241089 
	C228.965729,488.307678 222.992706,502.011841 216.851547,515.640198 
	C211.961182,526.492859 207.051773,537.344849 201.787857,548.018127 
	C198.850098,553.974854 195.171722,559.566345 191.827118,565.322388 
	C183.363251,558.113525 174.893661,550.911377 166.442429,543.687744 
	C165.317612,542.726318 164.285980,541.655884 163.121353,540.312012 
z"/>
<path fill="#7BB568" opacity="1.000000" stroke="none" 
	d="
M191.908264,565.659546 
	C195.171722,559.566345 198.850098,553.974854 201.787857,548.018127 
	C207.051773,537.344849 211.961182,526.492859 216.851547,515.640198 
	C222.992706,502.011841 228.965729,488.307678 235.384155,474.289368 
	C244.975464,481.471436 255.074417,487.380554 266.242371,490.897430 
	C260.796265,502.011993 255.667206,512.916504 250.589432,523.844849 
	C244.528793,536.888611 238.633575,550.010864 232.429794,562.985779 
	C228.836685,570.500671 224.777542,577.792664 220.928131,585.184998 
	C211.281906,578.788940 201.635666,572.392822 191.908264,565.659546 
z"/>
<path fill="#86B765" opacity="1.000000" stroke="none" 
	d="
M221.127075,585.464600 
	C224.777542,577.792664 228.836685,570.500671 232.429794,562.985779 
	C238.633575,550.010864 244.528793,536.888611 250.589432,523.844849 
	C255.667206,512.916504 260.796265,502.011993 266.596558,490.942383 
	C269.474152,491.513275 271.608337,492.563782 273.850464,492.905121 
	C281.546906,494.076904 289.281189,495.000244 297.001038,496.018280 
	C295.464722,500.670471 294.367767,505.526367 292.320892,509.941895 
	C278.763184,539.188904 264.998932,568.340210 251.326172,597.533997 
	C251.055832,598.111267 251.080795,598.826782 250.936646,599.877930 
	C241.045563,595.433533 231.185791,590.588867 221.127075,585.464600 
z"/>
<path fill="#9DBD5D" opacity="1.000000" stroke="none" 
	d="
M486.001404,197.017059 
	C488.828003,190.356934 491.465973,183.609024 494.517151,177.053436 
	C503.060608,158.697418 511.793243,140.429489 520.389832,122.098030 
	C521.150085,120.476898 521.462585,118.645798 521.989319,116.538704 
	C530.664917,123.150719 539.333008,130.137741 548.004883,137.120087 
	C549.259338,138.130157 550.531799,139.117783 551.970093,140.404724 
	C543.405701,159.386169 534.720520,178.103973 525.867188,196.741959 
	C524.639526,199.326477 522.581787,201.516708 520.277588,203.724426 
	C513.336853,198.797211 506.274384,196.460785 498.329407,196.792496 
	C494.224121,196.963913 490.110962,196.948212 486.001404,197.017059 
z"/>
<path fill="#FFFFFF" opacity="1.000000" stroke="none" 
	d="
M485.719421,197.218781 
	C490.110962,196.948212 494.224121,196.963913 498.329407,196.792496 
	C506.274384,196.460785 513.336853,198.797211 519.940918,203.772964 
	C524.354126,211.031906 524.462646,218.082840 522.000671,225.960632 
	C516.791382,242.629059 512.648193,259.627930 507.645386,276.365021 
	C505.627838,283.114746 503.003754,289.794739 499.747925,296.032654 
	C496.197388,302.835114 481.810852,308.329224 471.794495,304.402679 
	C469.805634,303.622955 467.735077,303.051697 465.004272,302.175140 
	C462.541321,300.819702 460.471710,299.963501 459.059814,298.480927 
	C448.515259,287.408966 438.364349,275.948151 427.529999,265.172302 
	C422.424774,260.094604 416.085571,256.257568 410.059692,251.571228 
	C398.070587,245.967529 386.446228,245.481979 374.638245,252.090530 
	C371.484528,253.696304 368.355316,254.970993 365.955780,257.077026 
	C357.045380,264.897461 348.168213,272.770111 343.068420,283.920746 
	C339.316559,292.124146 334.375824,299.874451 331.434601,308.337494 
	C326.563141,322.354706 322.359497,336.658722 318.876099,351.083771 
	C316.684235,360.160370 316.318695,369.678009 315.068787,379.462585 
	C315.135437,388.956177 315.267151,397.984955 315.359222,407.287842 
	C315.562378,408.033295 315.805206,408.504669 316.066284,409.360016 
	C316.697296,411.785767 317.278778,413.837524 317.928375,415.867493 
	C320.564850,424.106476 324.895966,430.833527 333.926941,433.778137 
	C341.636963,438.648682 350.116425,439.085938 358.241730,437.652863 
	C367.425385,436.033081 376.093933,432.376892 379.462433,422.175781 
	C382.102844,414.179657 384.960327,406.243134 387.241852,398.145020 
	C388.661682,393.105530 389.374207,387.838776 390.056763,382.628510 
	C390.599182,378.487518 388.417572,375.578796 384.675842,373.992249 
	C378.161072,371.229858 371.586670,368.608124 364.789185,365.683960 
	C352.742279,359.302521 353.436279,357.802887 354.042145,347.534760 
	C354.351227,342.296234 358.651215,338.649109 363.913025,337.988983 
	C367.330933,337.560211 370.709320,336.816559 374.567505,336.234314 
	C385.970978,336.270172 396.912384,336.298645 407.853821,336.298218 
	C422.570251,336.297668 437.286713,336.274811 452.003143,336.261536 
	C466.737427,336.398438 481.471741,336.535339 496.615601,336.635742 
	C502.350677,336.743591 507.680664,336.795319 513.000549,337.054352 
	C520.519897,337.420532 524.139099,343.276611 522.173096,350.493500 
	C520.108276,358.073456 514.711426,362.507751 508.714325,366.523376 
	C501.606049,371.283081 493.915405,375.299011 487.370636,380.716644 
	C484.457855,383.127777 483.342957,388.058472 482.092072,392.058228 
	C479.385071,400.714142 477.173523,409.523621 474.655670,418.240326 
	C470.761322,431.722565 466.872589,445.207703 462.800354,458.636719 
	C460.467651,466.329376 458.234924,474.105377 455.135986,481.499725 
	C450.918549,491.563019 442.074738,494.735016 431.910339,495.127563 
	C428.917725,495.243103 425.916016,495.124573 422.458618,495.198120 
	C412.900604,493.944092 403.980438,492.118896 396.729218,485.850250 
	C396.258057,485.442932 395.972076,484.821381 395.317749,484.103699 
	C391.551544,475.304810 388.067566,466.701660 384.608307,458.159515 
	C377.306854,464.855530 370.175446,471.395599 362.918274,478.240784 
	C357.728271,481.414307 352.703552,484.355194 347.591736,487.135925 
	C337.226349,492.774323 326.253418,496.190063 314.316254,495.994751 
	C308.855743,495.905396 303.393402,495.926544 297.466461,495.957947 
	C289.281189,495.000244 281.546906,494.076904 273.850464,492.905121 
	C271.608337,492.563782 269.474152,491.513275 266.936310,490.742920 
	C255.074417,487.380554 244.975464,481.471436 235.403458,473.894226 
	C231.416092,470.349060 227.448059,467.131744 224.231293,463.286011 
	C220.020935,458.252380 216.404175,452.722229 212.259430,447.203491 
	C210.508499,443.778351 208.988342,440.573853 207.559265,437.329224 
	C201.887085,424.450958 199.874878,410.789337 198.898773,396.444336 
	C198.892578,385.370544 198.303497,374.692047 199.203613,364.140564 
	C200.113632,353.473114 202.075745,342.838959 204.367874,332.363281 
	C206.290009,323.578583 209.109589,314.962646 211.957489,306.413788 
	C218.161072,287.791901 226.316696,270.006409 237.630157,253.949081 
	C245.353210,242.987656 254.813202,233.441238 266.091095,225.387161 
	C278.132507,218.235901 289.850311,211.137390 301.887299,204.629257 
	C307.023529,201.852234 312.826172,200.307800 318.660309,198.042969 
	C334.240662,194.433975 349.688965,192.737717 365.680115,192.367157 
	C366.736572,192.259811 367.422821,192.322830 368.781891,192.631729 
	C371.633270,192.871643 373.811890,192.865677 375.990479,192.859711 
	C385.737762,195.221832 395.485016,197.583939 405.614197,199.904236 
	C415.757568,205.238358 425.519043,210.614288 435.637817,216.004242 
	C438.923279,218.528595 441.822571,221.073700 444.788269,223.538864 
	C447.442200,225.744904 450.056305,224.480087 451.779602,222.523346 
	C461.250916,211.769150 472.272400,203.180405 485.719421,197.218781 
z"/>
<path fill="#70B36B" opacity="1.000000" stroke="none" 
	d="
M375.901062,192.491150 
	C373.811890,192.865677 371.633270,192.871643 369.126770,192.647186 
	C371.136444,192.318726 373.474060,192.220673 375.901062,192.491150 
z"/>
<path fill="#91BA61" opacity="1.000000" stroke="none" 
	d="
M452.001282,335.920929 
	C437.286713,336.274811 422.570251,336.297668 407.853821,336.298218 
	C396.912384,336.298645 385.970978,336.270172 374.369263,335.920349 
	C373.417419,333.853851 372.352448,331.770813 372.954376,330.443848 
	C378.693848,317.790863 384.788544,305.299805 390.632538,292.693268 
	C395.014648,283.240265 399.067108,273.633820 403.490021,264.200592 
	C405.480743,259.954742 408.016846,255.964569 410.305481,251.858383 
	C416.085571,256.257568 422.424774,260.094604 427.529999,265.172302 
	C438.364349,275.948151 448.515259,287.408966 459.059814,298.480927 
	C460.471710,299.963501 462.541321,300.819702 464.646851,302.088684 
	C462.719940,308.337128 460.523743,314.490479 458.162964,320.579987 
	C456.209320,325.619202 454.061340,330.583069 452.001282,335.920929 
z"/>
<path fill="#86B765" opacity="1.000000" stroke="none" 
	d="
M410.059692,251.571228 
	C408.016846,255.964569 405.480743,259.954742 403.490021,264.200592 
	C399.067108,273.633820 395.014648,283.240265 390.632538,292.693268 
	C384.788544,305.299805 378.693848,317.790863 372.954376,330.443848 
	C372.352448,331.770813 373.417419,333.853851 373.907227,335.900085 
	C370.709320,336.816559 367.330933,337.560211 363.913025,337.988983 
	C358.651215,338.649109 354.351227,342.296234 354.042145,347.534760 
	C353.436279,357.802887 352.742279,359.302521 364.639465,366.029388 
	C363.892303,368.934845 363.188904,371.315582 362.175903,373.556396 
	C358.431519,381.838867 354.665253,390.113403 350.757385,398.319550 
	C345.160492,410.072479 339.432129,421.762787 333.759888,433.479828 
	C324.895966,430.833527 320.564850,424.106476 317.928375,415.867493 
	C317.278778,413.837524 316.697296,411.785767 316.278809,409.212067 
	C316.115021,408.124664 315.756927,407.569214 315.398865,407.013763 
	C315.267151,397.984955 315.135437,388.956177 315.428528,379.455261 
	C316.801086,378.195496 318.145233,377.601410 318.638184,376.591736 
	C329.015045,355.337494 339.434509,334.101959 349.545715,312.720917 
	C356.060364,298.945190 362.333069,285.042480 368.234375,270.995117 
	C370.809448,264.865448 376.149750,259.627350 374.997742,252.141052 
	C386.446228,245.481979 398.070587,245.967529 410.059692,251.571228 
z"/>
<path fill="#91BA61" opacity="1.000000" stroke="none" 
	d="
M333.926941,433.778137 
	C339.432129,421.762787 345.160492,410.072479 350.757385,398.319550 
	C354.665253,390.113403 358.431519,381.838867 362.175903,373.556396 
	C363.188904,371.315582 363.892303,368.934845 364.887543,366.272888 
	C371.586670,368.608124 378.161072,371.229858 384.675842,373.992249 
	C388.417572,375.578796 390.599182,378.487518 390.056763,382.628510 
	C389.374207,387.838776 388.661682,393.105530 387.241852,398.145020 
	C384.960327,406.243134 382.102844,414.179657 379.462433,422.175781 
	C376.093933,432.376892 367.425385,436.033081 358.241730,437.652863 
	C350.116425,439.085938 341.636963,438.648682 333.926941,433.778137 
z"/>
<path fill="#7BB568" opacity="1.000000" stroke="none" 
	d="
M374.638245,252.090530 
	C376.149750,259.627350 370.809448,264.865448 368.234375,270.995117 
	C362.333069,285.042480 356.060364,298.945190 349.545715,312.720917 
	C339.434509,334.101959 329.015045,355.337494 318.638184,376.591736 
	C318.145233,377.601410 316.801086,378.195496 315.493591,378.990448 
	C316.318695,369.678009 316.684235,360.160370 318.876099,351.083771 
	C322.359497,336.658722 326.563141,322.354706 331.434601,308.337494 
	C334.375824,299.874451 339.316559,292.124146 343.068420,283.920746 
	C348.168213,272.770111 357.045380,264.897461 365.955780,257.077026 
	C368.355316,254.970993 371.484528,253.696304 374.638245,252.090530 
z"/>
<path fill="#7BB568" opacity="1.000000" stroke="none" 
	d="
M315.359222,407.287842 
	C315.756927,407.569214 316.115021,408.124664 316.260559,408.828064 
	C315.805206,408.504669 315.562378,408.033295 315.359222,407.287842 
z"/>
</svg>